# xmcd
#
# Track frame offsets:
# 150
# 20124
# 40226
# 53741
# 68242
# 78174
# 91620
# 110703
# 130117
# 138195
# 155288
# 171712
# 183107
# 188319
# 209728
#
# Disc length: 2943 seconds
#
# Revision: 0
# Processed by: cddbd v1.5.2PL0 Copyright (c) Steve Scherf et al.
# Submitted via: Axialis_AX_CDPlayer 2.6
#
DISCID=c60b7d0f
DTITLE=Ry Cooder - Crossroads Soundtrack
DYEAR=1900
DGENRE=
TTITLE0=Crossroads
TTITLE1=Down In Mississippi
TTITLE2=Cotton Needs Pickin'
TTITLE3=Viola Lee Blues
TTITLE4=See You In Hell, Blind Boy
TTITLE5=Nitty Gritty Mississippi
TTITLE6=He Made A Woman Out Of Me
TTITLE7=Feelin' Bad Blues
TTITLE8=Somebody's Callin' My Name
TTITLE9=Willie Brown Blues
TTITLE10=Walkin' Away Blues
TTITLE11=Fried Chicken
TTITLE12=Butler's Bag
TTITLE13=Head-Cuttin' Duel
TTITLE14=Eugene's Trick Bag
EXTD=
EXTT0=Ry Cooder
EXTT1=Ry Cooder
EXTT2=Ry Cooder
EXTT3=Ry Cooder
EXTT4=Ry Cooder
EXTT5=Ry Cooder
EXTT6=Ry Cooder
EXTT7=Ry Cooder
EXTT8=Ry Cooder
EXTT9=Ry Cooder
EXTT10=Ry Cooder
EXTT11=Steve Vai
EXTT12=Steve Vai
EXTT13=Steve Vai
EXTT14=Steve Vai
PLAYORDER=
